<svg xmlns="http://www.w3.org/2000/svg" width="38.899" height="39" viewBox="0 0 38.899 39"><g transform="translate(-378.449 -2352.992)"><path d="M322.9,0a19.5,19.5,0,1,0,19.45,19.55A19.461,19.461,0,0,0,322.9,0Zm0,36.481a16.981,16.981,0,1,1,16.93-17.031A16.9,16.9,0,0,1,322.9,36.481Z" transform="translate(75 2352.992)"/><path d="M343.993,38.411l-5.8-5.8,5.8-5.8a1.384,1.384,0,0,0,0-1.932,1.47,1.47,0,0,0-1.932,0l-5.8,5.8-5.8-5.8a1.384,1.384,0,0,0-1.932,0,1.469,1.469,0,0,0,0,1.932l5.8,5.8-5.8,5.8a1.385,1.385,0,0,0,0,1.932,1.47,1.47,0,0,0,1.932,0l5.8-5.8,5.8,5.8a1.366,1.366,0,1,0,1.932-1.932" transform="translate(61.727 2339.831)"/></g></svg>