<svg xmlns="http://www.w3.org/2000/svg" width="64.376" height="20.426" viewBox="0 0 64.376 20.426"><g transform="translate(-376 -246.574)"><text transform="translate(405 247)" fill="#080808" font-size="20" font-family="JosefinSans-SemiBold, Josefin Sans" font-weight="600"><tspan x="0" y="15">1</tspan></text><g transform="translate(376 247)"><path d="M207.925,0A9.5,9.5,0,1,0,217.4,9.525,9.481,9.481,0,0,0,207.925,0m0,17.773a8.273,8.273,0,1,1,8.248-8.3,8.235,8.235,0,0,1-8.248,8.3" transform="translate(-198.449)" fill="#f15025"/><path d="M227.015,23.652H223.48V20.117a.6.6,0,0,0-.589-.589.633.633,0,0,0-.589.589v3.535h-3.535a.6.6,0,0,0-.589.589.634.634,0,0,0,.589.589H222.3v3.535a.6.6,0,0,0,.589.589.634.634,0,0,0,.589-.589V24.83h3.535a.589.589,0,0,0,0-1.178" transform="translate(-213.366 -14.766)" fill="#f15025"/></g><g transform="translate(421 246.574)"><path d="M313.137,86a9.713,9.713,0,1,0,9.688,9.738A9.694,9.694,0,0,0,313.137,86Zm0,18.171a8.458,8.458,0,1,1,8.433-8.483A8.419,8.419,0,0,1,313.137,104.171Z" transform="translate(-303.449 -86)" fill="#f15025"/><path d="M332.213,122.439h-8.433a.61.61,0,0,0-.6.6.648.648,0,0,0,.6.6h8.433a.6.6,0,1,0,0-1.2" transform="translate(-318.258 -113.354)" fill="#f15025"/></g></g></svg>