<svg xmlns="http://www.w3.org/2000/svg" width="131" height="21" viewBox="0 0 131 21"><g transform="translate(-661 -337)"><g transform="translate(661 337)"><path d="M11.5,0l3.45,7.05L23,8.021,17.082,13.35,18.607,21,11.5,17.243,4.393,21l1.525-7.65L0,8.021,8.05,7.05Z" fill="#f15025" opacity="0.35"/></g><g transform="translate(688 337)"><path d="M11.5,0l3.45,7.05L23,8.021,17.082,13.35,18.607,21,11.5,17.243,4.393,21l1.525-7.65L0,8.021,8.05,7.05Z" fill="#f15025" opacity="0.35"/></g><g transform="translate(715 337)"><path d="M11.5,0l3.45,7.05L23,8.021,17.082,13.35,18.607,21,11.5,17.243,4.393,21l1.525-7.65L0,8.021,8.05,7.05Z" fill="#f15025" opacity="0.35"/></g><g transform="translate(742 337)"><path d="M11.5,0l3.45,7.05L23,8.021,17.082,13.35,18.607,21,11.5,17.243,4.393,21l1.525-7.65L0,8.021,8.05,7.05Z" fill="#f15025" opacity="0.35"/></g><g transform="translate(769 337)"><g fill="#fff" opacity="0.35"><path d="M 17.91147041320801 20.06662940979004 L 11.73365020751953 16.80135917663574 L 11.5 16.67786979675293 L 11.26634979248047 16.80135917663574 L 5.088529586791992 20.06662940979004 L 6.408130168914795 13.44754981994629 L 6.463749885559082 13.16856956481934 L 6.252349853515625 12.97821998596191 L 1.152138113975525 8.385876655578613 L 8.109910011291504 7.546189785003662 L 8.379670143127441 7.513629913330078 L 8.499110221862793 7.269569873809814 L 11.5 1.137499213218689 L 14.50088977813721 7.269569873809814 L 14.62032985687256 7.513629913330078 L 14.8900899887085 7.546189785003662 L 21.84786224365234 8.385876655578613 L 16.74765014648438 12.97821998596191 L 16.5362491607666 13.16856956481934 L 16.59186935424805 13.44754981994629 L 17.91147041320801 20.06662940979004 Z" stroke="none"/><path d="M 11.5 2.274978637695312 L 8.70934009552002 7.977479934692383 L 2.304275512695312 8.750461578369141 L 7.009719848632812 12.98735046386719 L 5.784448623657227 19.13326263427734 L 11.5 16.11231994628906 L 17.21555137634277 19.13326263427734 L 15.99028015136719 12.98735046386719 L 20.69572448730469 8.750461578369141 L 14.29065990447998 7.977479934692383 L 11.5 2.274978637695312 M 11.5 0 L 14.94999980926514 7.049790382385254 L 23 8.021289825439453 L 17.08222007751465 13.34979057312012 L 18.60738945007324 21 L 11.5 17.24341011047363 L 4.392610549926758 21 L 5.917779922485352 13.34979057312012 L 0 8.021289825439453 L 8.050000190734863 7.049790382385254 L 11.5 0 Z" stroke="none" fill="#707070"/></g></g></g></svg>