<svg xmlns="http://www.w3.org/2000/svg" width="12.559" height="12.591" viewBox="0 0 12.559 12.591"><g transform="translate(-180.789 -2438.991)"><path d="M112.069,86a6.3,6.3,0,1,0,6.28,6.312A6.283,6.283,0,0,0,112.069,86Zm0,11.778a5.482,5.482,0,1,1,5.466-5.5A5.457,5.457,0,0,1,112.069,97.777Z" transform="translate(75 2352.992)" fill="#f15025"/><rect width="1.041" height="1.074" transform="translate(186.483 2448.101)" fill="#f15025"/><path d="M132.273,100.906a2.279,2.279,0,0,0-1.757.683,2.6,2.6,0,0,0-.651,1.822h.944a2.148,2.148,0,0,1,.228-1.041,1.3,1.3,0,0,1,1.236-.651,1.386,1.386,0,0,1,1.041.358,1.228,1.228,0,0,1,.325.878,1.171,1.171,0,0,1-.228.716,1.126,1.126,0,0,1-.325.358l-.423.423a2.5,2.5,0,0,0-.944,2.245h.944a2.294,2.294,0,0,1,.163-.976,3.038,3.038,0,0,1,.651-.813,10.516,10.516,0,0,0,.944-1.009,1.514,1.514,0,0,0,.228-.911,1.918,1.918,0,0,0-.618-1.5A2.45,2.45,0,0,0,132.273,100.906Z" transform="translate(54.861 2340.525)" fill="#f15025"/></g></svg>